<?xml version="1.0" encoding="UTF-8" standalone="no"?>
<!-- Created with Inkscape (http://www.inkscape.org/) -->

<svg
   width="37.36694mm"
   height="23.399714mm"
   viewBox="0 0 37.366939 23.399713"
   version="1.1"
   id="svg5"
   xml:space="preserve"
   xmlns="http://www.w3.org/2000/svg"
   xmlns:svg="http://www.w3.org/2000/svg"><defs
     id="defs2"><rect
       x="295.87241"
       y="133.85779"
       width="140.08765"
       height="13.953625"
       id="rect3630" /></defs><g
     id="layer1"
     transform="translate(-4.0856349,-94.092932)"><g
       id="g5408"
       transform="translate(-76.672546,17.672164)"><path
         id="path3606"
         style="fill:#ffffff;stroke:#000000;stroke-width:0.264583"
         d="m 80.970795,93.968531 a 18.529758,18.529758 0 0 0 -0.03721,1.114144 H 97.055081 A 2.4081182,2.4081182 0 0 1 97.3331,93.968531 Z" /><path
         id="path3608"
         style="fill:#ffdd00;fill-opacity:1;stroke:#000000;stroke-width:0.264583"
         d="m 99.463206,76.553056 a 18.529758,18.529758 0 0 0 -13.10256,5.427059 l 11.399821,11.399821 a 2.4081182,2.4081182 0 0 1 1.702739,-0.705383 z" /><path
         id="path3610"
         style="fill:#ff7a00;fill-opacity:1;stroke:#000000;stroke-width:0.264583"
         d="m 99.463206,76.553056 v 16.121497 a 2.4081182,2.4081182 0 0 1 1.702734,0.705383 L 112.56577,81.980115 A 18.529758,18.529758 0 0 0 99.463206,76.553056 Z" /><path
         id="path3612"
         style="fill:#bd0000;fill-opacity:1;stroke:#000000;stroke-width:0.264583"
         d="m 112.56577,81.980115 -11.39983,11.399821 a 2.4081182,2.4081182 0 0 1 0.70539,1.702739 h 16.1215 a 18.529758,18.529758 0 0 0 -5.42706,-13.10256 z" /><rect
         style="fill:#ff7a00;fill-opacity:1;stroke:#000000;stroke-width:0.264583;stroke-dasharray:none"
         id="rect3614"
         width="37.095844"
         height="3.7591002"
         x="80.890472"
         y="95.929085" /><path
         id="path3616"
         style="fill:#35c300;fill-opacity:1;stroke:#000000;stroke-width:0.264583"
         d="m 86.360646,81.980115 a 18.529758,18.529758 0 0 0 -5.389335,11.988416 h 16.361792 a 2.4081182,2.4081182 0 0 1 0.427364,-0.588595 z" /><path
         style="fill:#ffffff;stroke:#000000;stroke-width:0.264583;stroke-linejoin:bevel;stroke-dasharray:none"
         d="m 104.90573,80.341062 -5.167236,12.378866 1.217396,0.50817 5.16724,-12.378866 0.0913,-1.9311 z"
         id="path3620" /><text
         xml:space="preserve"
         transform="matrix(0.26458333,0,0,0.26458333,2.6228509,60.636818)"
         id="text3628"
         style="font-style:normal;font-variant:normal;font-weight:bold;font-stretch:normal;font-family:sans-serif;-inkscape-font-specification:'sans-serif Bold';text-align:center;white-space:pre;shape-inside:url(#rect3630);display:inline;fill:#000000;stroke:none;stroke-width:1;stroke-linejoin:bevel;stroke-dasharray:none"
         x="14.778002"
         y="0"><tspan
           x="338.743"
           y="144.77592"
           id="tspan6747">EXTREME</tspan></text></g></g></svg>
