<?xml version="1.0" encoding="UTF-8" standalone="no"?>
<!-- Created with Inkscape (http://www.inkscape.org/) -->

<svg
   width="37.366947mm"
   height="23.399717mm"
   viewBox="0 0 37.366947 23.399717"
   version="1.1"
   id="svg5"
   xml:space="preserve"
   xmlns="http://www.w3.org/2000/svg"
   xmlns:svg="http://www.w3.org/2000/svg"><defs
     id="defs2"><rect
       x="295.87241"
       y="133.85779"
       width="140.08765"
       height="13.953625"
       id="rect3686" /></defs><g
     id="layer1"
     transform="translate(-4.0856334,-5.3943555)"><g
       id="g5429"
       transform="translate(-126.82393,-71.862976)"><path
         id="path3662"
         style="fill:#ffffff;stroke:#000000;stroke-width:0.264583"
         d="m 131.12218,94.805093 a 18.529758,18.529758 0 0 0 -0.0372,1.11415 h 16.1215 a 2.4081182,2.4081182 0 0 1 0.27802,-1.11415 z" /><path
         id="path3664"
         style="fill:#ffdd00;fill-opacity:1;stroke:#000000;stroke-width:0.264583"
         d="m 149.6146,77.389623 a 18.529758,18.529758 0 0 0 -13.10257,5.42706 l 11.39982,11.39982 a 2.4081182,2.4081182 0 0 1 1.70275,-0.70539 z" /><path
         id="path3666"
         style="fill:#ff7a00;fill-opacity:1;stroke:#000000;stroke-width:0.264583"
         d="m 149.6146,77.389623 v 16.12149 a 2.4081182,2.4081182 0 0 1 1.70273,0.70539 l 11.39983,-11.39982 a 18.529758,18.529758 0 0 0 -13.10256,-5.42706 z" /><path
         id="path3668"
         style="fill:#bd0000;fill-opacity:1;stroke:#000000;stroke-width:0.264583"
         d="m 162.71716,82.816683 -11.39983,11.39982 a 2.4081182,2.4081182 0 0 1 0.70539,1.70274 h 16.1215 a 18.529758,18.529758 0 0 0 -5.42706,-13.10256 z" /><rect
         style="fill:#ffffff;stroke:#000000;stroke-width:0.264583;stroke-dasharray:none"
         id="rect3670"
         width="37.095844"
         height="3.7591002"
         x="131.04185"
         y="96.765656" /><path
         id="path3672"
         style="fill:#35c300;fill-opacity:1;stroke:#000000;stroke-width:0.264583"
         d="m 136.51203,82.816683 a 18.529758,18.529758 0 0 0 -5.38933,11.98841 h 16.36179 a 2.4081182,2.4081182 0 0 1 0.42736,-0.58859 z" /><text
         xml:space="preserve"
         transform="matrix(0.26458333,0,0,0.26458333,52.774237,61.473383)"
         id="text3684"
         style="font-style:normal;font-variant:normal;font-weight:bold;font-stretch:normal;font-family:sans-serif;-inkscape-font-specification:'sans-serif Bold';text-align:center;white-space:pre;shape-inside:url(#rect3686);display:inline;fill:#000000;stroke:none;stroke-width:1;stroke-linejoin:bevel;stroke-dasharray:none"
         x="14.778002"
         y="0"><tspan
           x="331.99298"
           y="144.77592"
           id="tspan6469">NO RATING</tspan></text></g></g></svg>
