<?xml version="1.0" encoding="UTF-8" standalone="no"?>
<!-- Created with Inkscape (http://www.inkscape.org/) -->

<svg
   width="37.366947mm"
   height="23.399719mm"
   viewBox="0 0 37.366947 23.399718"
   version="1.1"
   id="svg5"
   xml:space="preserve"
   xmlns="http://www.w3.org/2000/svg"
   xmlns:svg="http://www.w3.org/2000/svg"><defs
     id="defs2"><rect
       x="295.87241"
       y="133.85779"
       width="140.08765"
       height="13.953625"
       id="rect3500" /></defs><g
     id="layer1"
     transform="translate(-4.0856327,-34.960544)"><g
       id="g5386"
       transform="translate(-74.005495,19.11345)"><path
         id="path1634"
         style="fill:#ffffff;stroke:#000000;stroke-width:0.264583"
         d="m 78.303748,33.394861 a 18.529758,18.529758 0 0 0 -0.03721,1.114144 h 16.121496 a 2.4081182,2.4081182 0 0 1 0.278019,-1.114144 z" /><path
         id="path2418"
         style="fill:#ffdd00;fill-opacity:1;stroke:#000000;stroke-width:0.264583"
         d="m 96.796159,15.979386 a 18.529758,18.529758 0 0 0 -13.10256,5.427059 L 95.09342,32.806266 a 2.4081182,2.4081182 0 0 1 1.702739,-0.705383 z" /><path
         id="path2426"
         style="fill:#ff7a00;fill-opacity:1;stroke:#000000;stroke-width:0.264583"
         d="m 96.796159,15.979386 v 16.121497 a 2.4081182,2.4081182 0 0 1 1.702738,0.705383 L 109.89872,21.406445 A 18.529758,18.529758 0 0 0 96.796159,15.979386 Z" /><path
         id="path2428"
         style="fill:#bd0000;fill-opacity:1;stroke:#000000;stroke-width:0.264583"
         d="M 109.89872,21.406445 98.498897,32.806266 a 2.4081182,2.4081182 0 0 1 0.705384,1.702739 h 16.121499 a 18.529758,18.529758 0 0 0 -5.42706,-13.10256 z" /><rect
         style="fill:#35c300;fill-opacity:1;stroke:#000000;stroke-width:0.264583;stroke-dasharray:none"
         id="rect2482"
         width="37.095844"
         height="3.7591002"
         x="78.223419"
         y="35.355419" /><path
         id="path2617"
         style="fill:#35c300;fill-opacity:1;stroke:#000000;stroke-width:0.264583"
         d="M 83.693599,21.406445 A 18.529758,18.529758 0 0 0 78.304264,33.394861 H 94.666056 A 2.4081182,2.4081182 0 0 1 95.09342,32.806266 Z" /><path
         style="fill:#ffffff;stroke:#000000;stroke-width:0.264583;stroke-linejoin:bevel;stroke-dasharray:none"
         d="m 82.030967,28.942031 12.378866,5.167234 0.50817,-1.217395 -12.378866,-5.167234 -1.931099,-0.09133 z"
         id="path2687" /><text
         xml:space="preserve"
         transform="matrix(0.26458333,0,0,0.26458333,-0.04419594,0.06314815)"
         id="text3498"
         style="font-style:normal;font-variant:normal;font-weight:bold;font-stretch:normal;font-family:sans-serif;-inkscape-font-specification:'sans-serif Bold';text-align:center;white-space:pre;shape-inside:url(#rect3500);display:inline;fill:#000000;stroke:none;stroke-width:1;stroke-linejoin:bevel;stroke-dasharray:none"
         x="14.778002"
         y="0"><tspan
           x="333.16899"
           y="144.77592"
           id="tspan6608">MODERATE</tspan></text></g></g></svg>
