<?xml version="1.0" encoding="UTF-8" standalone="no"?>
<!-- Created with Inkscape (http://www.inkscape.org/) -->

<svg
   width="37.36694mm"
   height="23.399714mm"
   viewBox="0 0 37.366939 23.399713"
   version="1.1"
   id="svg5"
   xml:space="preserve"
   xmlns="http://www.w3.org/2000/svg"
   xmlns:svg="http://www.w3.org/2000/svg"><defs
     id="defs2"><rect
       x="295.87241"
       y="133.85779"
       width="140.08765"
       height="13.953625"
       id="rect3658" /></defs><g
     id="layer1"
     transform="translate(-4.0856344,-123.65911)"><g
       id="g5419"
       transform="translate(-78.003975,18.476085)"><path
         id="path3634"
         style="fill:#ffffff;stroke:#000000;stroke-width:0.264583"
         d="m 82.302226,122.73079 a 18.529758,18.529758 0 0 0 -0.03721,1.11415 h 16.121496 a 2.4081182,2.4081182 0 0 1 0.278019,-1.11415 z" /><path
         id="path3636"
         style="fill:#ffdd00;fill-opacity:1;stroke:#000000;stroke-width:0.264583"
         d="m 100.79464,105.31532 a 18.529758,18.529758 0 0 0 -13.102563,5.42706 l 11.399821,11.39982 a 2.4081182,2.4081182 0 0 1 1.702742,-0.70539 z" /><path
         id="path3638"
         style="fill:#ff7a00;fill-opacity:1;stroke:#000000;stroke-width:0.264583"
         d="m 100.79464,105.31532 v 16.12149 a 2.4081182,2.4081182 0 0 1 1.70273,0.70539 l 11.39983,-11.39982 a 18.529758,18.529758 0 0 0 -13.10256,-5.42706 z" /><path
         id="path3640"
         style="fill:#bd0000;fill-opacity:1;stroke:#000000;stroke-width:0.264583"
         d="m 113.8972,110.74238 -11.39983,11.39982 a 2.4081182,2.4081182 0 0 1 0.70539,1.70274 h 16.1215 a 18.529758,18.529758 0 0 0 -5.42706,-13.10256 z" /><rect
         style="fill:#bd0000;fill-opacity:1;stroke:#000000;stroke-width:0.264583;stroke-dasharray:none"
         id="rect3642"
         width="37.095844"
         height="3.7591002"
         x="82.221901"
         y="124.69135" /><path
         id="path3644"
         style="fill:#35c300;fill-opacity:1;stroke:#000000;stroke-width:0.264583"
         d="m 87.692077,110.74238 a 18.529758,18.529758 0 0 0 -5.389335,11.98841 h 16.361792 a 2.4081182,2.4081182 0 0 1 0.427364,-0.58859 z" /><path
         style="fill:#ffffff;stroke:#000000;stroke-width:0.264583;stroke-linejoin:bevel;stroke-dasharray:none"
         d="m 115.09875,117.27104 -12.40696,5.09939 0.50149,1.22016 12.40697,-5.09939 1.43005,-1.30093 z"
         id="path3650" /><text
         xml:space="preserve"
         transform="matrix(0.26458333,0,0,0.26458333,3.9542824,89.39908)"
         id="text3656"
         style="font-style:normal;font-variant:normal;font-weight:bold;font-stretch:normal;font-family:sans-serif;-inkscape-font-specification:'sans-serif Bold';text-align:center;white-space:pre;shape-inside:url(#rect3658);display:inline;fill:#000000;stroke:none;stroke-width:1;stroke-linejoin:bevel;stroke-dasharray:none"
         x="14.778002"
         y="0"><tspan
           x="321.15099"
           y="144.77592"
           id="tspan6888"><tspan
             style="fill:#ffffff"
             id="tspan6886">CATASTROPHIC</tspan></tspan></text></g></g></svg>
