<?xml version="1.0" encoding="UTF-8" standalone="no"?>
<!-- Created with Inkscape (http://www.inkscape.org/) -->

<svg
   width="37.366947mm"
   height="141.66447mm"
   viewBox="0 0 37.366947 141.66447"
   version="1.1"
   id="svg5"
   xml:space="preserve"
   inkscape:version="1.2.2 (b0a8486541, 2022-12-01)"
   sodipodi:docname="ratings.svg"
   xmlns:inkscape="http://www.inkscape.org/namespaces/inkscape"
   xmlns:sodipodi="http://sodipodi.sourceforge.net/DTD/sodipodi-0.dtd"
   xmlns="http://www.w3.org/2000/svg"
   xmlns:svg="http://www.w3.org/2000/svg"><sodipodi:namedview
     id="namedview7"
     pagecolor="#ffffff"
     bordercolor="#000000"
     borderopacity="0.25"
     inkscape:showpageshadow="2"
     inkscape:pageopacity="0.0"
     inkscape:pagecheckerboard="0"
     inkscape:deskcolor="#d1d1d1"
     inkscape:document-units="mm"
     showgrid="false"
     inkscape:zoom="1.6477228"
     inkscape:cx="460.93919"
     inkscape:cy="270.98005"
     inkscape:window-width="2256"
     inkscape:window-height="1479"
     inkscape:window-x="0"
     inkscape:window-y="0"
     inkscape:window-maximized="1"
     inkscape:current-layer="layer1" /><defs
     id="defs2"><rect
       x="295.87241"
       y="133.85779"
       width="140.08765"
       height="13.953625"
       id="rect3500" /><rect
       x="295.87241"
       y="133.85779"
       width="140.08765"
       height="13.953625"
       id="rect3602" /><rect
       x="295.87241"
       y="133.85779"
       width="140.08765"
       height="13.953625"
       id="rect3630" /><rect
       x="295.87241"
       y="133.85779"
       width="140.08765"
       height="13.953625"
       id="rect3658" /><rect
       x="295.87241"
       y="133.85779"
       width="140.08765"
       height="13.953625"
       id="rect3686" /></defs><g
     inkscape:label="Layer 1"
     inkscape:groupmode="layer"
     id="layer1"
     transform="translate(-4.0856326,-5.3943555)"><g
       id="g5386"
       transform="translate(-74.005495,19.11345)"
       inkscape:export-filename="fdr-moderate.png"
       inkscape:export-xdpi="407.84708"
       inkscape:export-ydpi="407.84708"><path
         id="path1634"
         style="fill:#ffffff;stroke:#000000;stroke-width:0.264583"
         d="m 78.303748,33.394861 a 18.529758,18.529758 0 0 0 -0.03721,1.114144 h 16.121496 a 2.4081182,2.4081182 0 0 1 0.278019,-1.114144 z" /><path
         id="path2418"
         style="fill:#ffdd00;fill-opacity:1;stroke:#000000;stroke-width:0.264583"
         d="m 96.796159,15.979386 a 18.529758,18.529758 0 0 0 -13.10256,5.427059 L 95.09342,32.806266 a 2.4081182,2.4081182 0 0 1 1.702739,-0.705383 z" /><path
         id="path2426"
         style="fill:#ff7a00;fill-opacity:1;stroke:#000000;stroke-width:0.264583"
         d="m 96.796159,15.979386 v 16.121497 a 2.4081182,2.4081182 0 0 1 1.702738,0.705383 L 109.89872,21.406445 A 18.529758,18.529758 0 0 0 96.796159,15.979386 Z" /><path
         id="path2428"
         style="fill:#bd0000;fill-opacity:1;stroke:#000000;stroke-width:0.264583"
         d="M 109.89872,21.406445 98.498897,32.806266 a 2.4081182,2.4081182 0 0 1 0.705384,1.702739 h 16.121499 a 18.529758,18.529758 0 0 0 -5.42706,-13.10256 z" /><rect
         style="fill:#35c300;fill-opacity:1;stroke:#000000;stroke-width:0.264583;stroke-dasharray:none"
         id="rect2482"
         width="37.095844"
         height="3.7591002"
         x="78.223419"
         y="35.355419" /><path
         id="path2617"
         style="fill:#35c300;fill-opacity:1;stroke:#000000;stroke-width:0.264583"
         d="M 83.693599,21.406445 A 18.529758,18.529758 0 0 0 78.304264,33.394861 H 94.666056 A 2.4081182,2.4081182 0 0 1 95.09342,32.806266 Z" /><path
         style="fill:#ffffff;stroke:#000000;stroke-width:0.264583;stroke-linejoin:bevel;stroke-dasharray:none"
         d="m 82.030967,28.942031 12.378866,5.167234 0.50817,-1.217395 -12.378866,-5.167234 -1.931099,-0.09133 z"
         id="path2687"
         sodipodi:nodetypes="cccccc" /><text
         xml:space="preserve"
         transform="matrix(0.26458333,0,0,0.26458333,-0.04419594,0.06314815)"
         id="text3498"
         style="font-style:normal;font-variant:normal;font-weight:bold;font-stretch:normal;font-family:sans-serif;-inkscape-font-specification:'sans-serif Bold';text-align:center;white-space:pre;shape-inside:url(#rect3500);display:inline;fill:#000000;stroke:none;stroke-width:1;stroke-linejoin:bevel;stroke-dasharray:none"
         x="14.778002"
         y="0"><tspan
           x="333.16899"
           y="144.77592"
           id="tspan7018">MODERATE</tspan></text></g><g
       id="g5397"
       transform="translate(-75.513155,18.692339)"
       inkscape:export-filename="fdr-high.png"
       inkscape:export-xdpi="407.84708"
       inkscape:export-ydpi="407.84708"><path
         id="path3578"
         style="fill:#ffffff;stroke:#000000;stroke-width:0.264583"
         d="m 79.811405,63.382165 a 18.529758,18.529758 0 0 0 -0.03721,1.114144 h 16.121496 a 2.4081182,2.4081182 0 0 1 0.278019,-1.114144 z" /><path
         id="path3580"
         style="fill:#ffdd00;fill-opacity:1;stroke:#000000;stroke-width:0.264583"
         d="m 98.303816,45.96669 a 18.529758,18.529758 0 0 0 -13.10256,5.427059 L 96.601077,62.79357 a 2.4081182,2.4081182 0 0 1 1.702739,-0.705383 z" /><path
         id="path3582"
         style="fill:#ff7a00;fill-opacity:1;stroke:#000000;stroke-width:0.264583"
         d="m 98.303816,45.96669 v 16.121497 a 2.4081182,2.4081182 0 0 1 1.702734,0.705383 L 111.40638,51.393749 A 18.529758,18.529758 0 0 0 98.303816,45.96669 Z" /><path
         id="path3584"
         style="fill:#bd0000;fill-opacity:1;stroke:#000000;stroke-width:0.264583"
         d="M 111.40638,51.393749 100.00655,62.79357 a 2.4081182,2.4081182 0 0 1 0.70539,1.702739 h 16.1215 a 18.529758,18.529758 0 0 0 -5.42706,-13.10256 z" /><rect
         style="fill:#ffdd00;fill-opacity:1;stroke:#000000;stroke-width:0.264583;stroke-dasharray:none"
         id="rect3586"
         width="37.095844"
         height="3.7591002"
         x="79.731079"
         y="65.34272" /><path
         id="path3588"
         style="fill:#35c300;fill-opacity:1;stroke:#000000;stroke-width:0.264583"
         d="M 85.201256,51.393749 A 18.529758,18.529758 0 0 0 79.811921,63.382165 H 96.173713 A 2.4081182,2.4081182 0 0 1 96.601077,62.79357 Z" /><path
         style="fill:#ffffff;stroke:#000000;stroke-width:0.264583;stroke-linejoin:bevel;stroke-dasharray:none"
         d="M 91.701827,50.111234 96.801221,62.518201 98.02138,62.016703 92.921986,49.609736 91.621071,48.179664 Z"
         id="path3590"
         sodipodi:nodetypes="cccccc" /><text
         xml:space="preserve"
         transform="matrix(0.26458333,0,0,0.26458333,1.4634613,30.050452)"
         id="text3600"
         style="font-style:normal;font-variant:normal;font-weight:bold;font-stretch:normal;font-family:sans-serif;-inkscape-font-specification:'sans-serif Bold';text-align:center;white-space:pre;shape-inside:url(#rect3602);display:inline;fill:#000000;stroke:none;stroke-width:1;stroke-linejoin:bevel;stroke-dasharray:none"
         x="14.778002"
         y="0"><tspan
           x="350.05899"
           y="144.77592"
           id="tspan7020">HIGH</tspan></text></g><g
       id="g5408"
       transform="translate(-76.672546,17.672164)"
       inkscape:export-filename="./fdr-extreme.png"
       inkscape:export-xdpi="407.84717"
       inkscape:export-ydpi="407.84717"><path
         id="path3606"
         style="fill:#ffffff;stroke:#000000;stroke-width:0.264583"
         d="m 80.970795,93.968531 a 18.529758,18.529758 0 0 0 -0.03721,1.114144 H 97.055081 A 2.4081182,2.4081182 0 0 1 97.3331,93.968531 Z" /><path
         id="path3608"
         style="fill:#ffdd00;fill-opacity:1;stroke:#000000;stroke-width:0.264583"
         d="m 99.463206,76.553056 a 18.529758,18.529758 0 0 0 -13.10256,5.427059 l 11.399821,11.399821 a 2.4081182,2.4081182 0 0 1 1.702739,-0.705383 z" /><path
         id="path3610"
         style="fill:#ff7a00;fill-opacity:1;stroke:#000000;stroke-width:0.264583"
         d="m 99.463206,76.553056 v 16.121497 a 2.4081182,2.4081182 0 0 1 1.702734,0.705383 L 112.56577,81.980115 A 18.529758,18.529758 0 0 0 99.463206,76.553056 Z" /><path
         id="path3612"
         style="fill:#bd0000;fill-opacity:1;stroke:#000000;stroke-width:0.264583"
         d="m 112.56577,81.980115 -11.39983,11.399821 a 2.4081182,2.4081182 0 0 1 0.70539,1.702739 h 16.1215 a 18.529758,18.529758 0 0 0 -5.42706,-13.10256 z" /><rect
         style="fill:#ff7a00;fill-opacity:1;stroke:#000000;stroke-width:0.264583;stroke-dasharray:none"
         id="rect3614"
         width="37.095844"
         height="3.7591002"
         x="80.890472"
         y="95.929085" /><path
         id="path3616"
         style="fill:#35c300;fill-opacity:1;stroke:#000000;stroke-width:0.264583"
         d="m 86.360646,81.980115 a 18.529758,18.529758 0 0 0 -5.389335,11.988416 h 16.361792 a 2.4081182,2.4081182 0 0 1 0.427364,-0.588595 z" /><path
         style="fill:#ffffff;stroke:#000000;stroke-width:0.264583;stroke-linejoin:bevel;stroke-dasharray:none"
         d="m 104.90573,80.341062 -5.167236,12.378866 1.217396,0.50817 5.16724,-12.378866 0.0913,-1.9311 z"
         id="path3620"
         sodipodi:nodetypes="cccccc" /><text
         xml:space="preserve"
         transform="matrix(0.26458333,0,0,0.26458333,2.6228509,60.636818)"
         id="text3628"
         style="font-style:normal;font-variant:normal;font-weight:bold;font-stretch:normal;font-family:sans-serif;-inkscape-font-specification:'sans-serif Bold';text-align:center;white-space:pre;shape-inside:url(#rect3630);display:inline;fill:#000000;stroke:none;stroke-width:1;stroke-linejoin:bevel;stroke-dasharray:none"
         x="14.778002"
         y="0"><tspan
           x="338.743"
           y="144.77592"
           id="tspan7022">EXTREME</tspan></text></g><g
       id="g5419"
       transform="translate(-78.003975,18.476085)"
       inkscape:export-filename="./fdr-catastrophic.png"
       inkscape:export-xdpi="407.84708"
       inkscape:export-ydpi="407.84708"><path
         id="path3634"
         style="fill:#ffffff;stroke:#000000;stroke-width:0.264583"
         d="m 82.302226,122.73079 a 18.529758,18.529758 0 0 0 -0.03721,1.11415 h 16.121496 a 2.4081182,2.4081182 0 0 1 0.278019,-1.11415 z" /><path
         id="path3636"
         style="fill:#ffdd00;fill-opacity:1;stroke:#000000;stroke-width:0.264583"
         d="m 100.79464,105.31532 a 18.529758,18.529758 0 0 0 -13.102563,5.42706 l 11.399821,11.39982 a 2.4081182,2.4081182 0 0 1 1.702742,-0.70539 z" /><path
         id="path3638"
         style="fill:#ff7a00;fill-opacity:1;stroke:#000000;stroke-width:0.264583"
         d="m 100.79464,105.31532 v 16.12149 a 2.4081182,2.4081182 0 0 1 1.70273,0.70539 l 11.39983,-11.39982 a 18.529758,18.529758 0 0 0 -13.10256,-5.42706 z" /><path
         id="path3640"
         style="fill:#bd0000;fill-opacity:1;stroke:#000000;stroke-width:0.264583"
         d="m 113.8972,110.74238 -11.39983,11.39982 a 2.4081182,2.4081182 0 0 1 0.70539,1.70274 h 16.1215 a 18.529758,18.529758 0 0 0 -5.42706,-13.10256 z" /><rect
         style="fill:#bd0000;fill-opacity:1;stroke:#000000;stroke-width:0.264583;stroke-dasharray:none"
         id="rect3642"
         width="37.095844"
         height="3.7591002"
         x="82.221901"
         y="124.69135" /><path
         id="path3644"
         style="fill:#35c300;fill-opacity:1;stroke:#000000;stroke-width:0.264583"
         d="m 87.692077,110.74238 a 18.529758,18.529758 0 0 0 -5.389335,11.98841 h 16.361792 a 2.4081182,2.4081182 0 0 1 0.427364,-0.58859 z" /><path
         style="fill:#ffffff;stroke:#000000;stroke-width:0.264583;stroke-linejoin:bevel;stroke-dasharray:none"
         d="m 115.09875,117.27104 -12.40696,5.09939 0.50149,1.22016 12.40697,-5.09939 1.43005,-1.30093 z"
         id="path3650"
         sodipodi:nodetypes="cccccc" /><text
         xml:space="preserve"
         transform="matrix(0.26458333,0,0,0.26458333,3.9542824,89.39908)"
         id="text3656"
         style="font-style:normal;font-variant:normal;font-weight:bold;font-stretch:normal;font-family:sans-serif;-inkscape-font-specification:'sans-serif Bold';text-align:center;white-space:pre;shape-inside:url(#rect3658);display:inline;fill:#000000;stroke:none;stroke-width:1;stroke-linejoin:bevel;stroke-dasharray:none"
         x="14.778002"
         y="0"><tspan
           x="321.15099"
           y="144.77592"
           id="tspan7026"><tspan
             style="fill:#ffffff"
             id="tspan7024">CATASTROPHIC</tspan></tspan></text></g><g
       id="g5429"
       transform="translate(-126.82393,-71.862976)"
       inkscape:export-filename="fdr-no-rating.png"
       inkscape:export-xdpi="407.84705"
       inkscape:export-ydpi="407.84705"><path
         id="path3662"
         style="fill:#ffffff;stroke:#000000;stroke-width:0.264583"
         d="m 131.12218,94.805093 a 18.529758,18.529758 0 0 0 -0.0372,1.11415 h 16.1215 a 2.4081182,2.4081182 0 0 1 0.27802,-1.11415 z" /><path
         id="path3664"
         style="fill:#ffdd00;fill-opacity:1;stroke:#000000;stroke-width:0.264583"
         d="m 149.6146,77.389623 a 18.529758,18.529758 0 0 0 -13.10257,5.42706 l 11.39982,11.39982 a 2.4081182,2.4081182 0 0 1 1.70275,-0.70539 z" /><path
         id="path3666"
         style="fill:#ff7a00;fill-opacity:1;stroke:#000000;stroke-width:0.264583"
         d="m 149.6146,77.389623 v 16.12149 a 2.4081182,2.4081182 0 0 1 1.70273,0.70539 l 11.39983,-11.39982 a 18.529758,18.529758 0 0 0 -13.10256,-5.42706 z" /><path
         id="path3668"
         style="fill:#bd0000;fill-opacity:1;stroke:#000000;stroke-width:0.264583"
         d="m 162.71716,82.816683 -11.39983,11.39982 a 2.4081182,2.4081182 0 0 1 0.70539,1.70274 h 16.1215 a 18.529758,18.529758 0 0 0 -5.42706,-13.10256 z" /><rect
         style="fill:#ffffff;stroke:#000000;stroke-width:0.264583;stroke-dasharray:none"
         id="rect3670"
         width="37.095844"
         height="3.7591002"
         x="131.04185"
         y="96.765656" /><path
         id="path3672"
         style="fill:#35c300;fill-opacity:1;stroke:#000000;stroke-width:0.264583"
         d="m 136.51203,82.816683 a 18.529758,18.529758 0 0 0 -5.38933,11.98841 h 16.36179 a 2.4081182,2.4081182 0 0 1 0.42736,-0.58859 z" /><text
         xml:space="preserve"
         transform="matrix(0.26458333,0,0,0.26458333,52.774237,61.473383)"
         id="text3684"
         style="font-style:normal;font-variant:normal;font-weight:bold;font-stretch:normal;font-family:sans-serif;-inkscape-font-specification:'sans-serif Bold';text-align:center;white-space:pre;shape-inside:url(#rect3686);display:inline;fill:#000000;stroke:none;stroke-width:1;stroke-linejoin:bevel;stroke-dasharray:none"
         x="14.778002"
         y="0"><tspan
           x="331.99298"
           y="144.77592"
           id="tspan7028">NO RATING</tspan></text></g></g></svg>
